<mxfile host="app.diagrams.net" modified="2024-05-16T06:36:19.899Z" agent="Mozilla/5.0 (X11; Linux x86_64) AppleWebKit/537.36 (KHTML, like Gecko) Chrome/120.0.0.0 Safari/537.36" version="24.4.2" etag="ulnlEkuK8gNcUwdJaL8-" type="github">
  <diagram name="Page-1" id="cDn3iTxo95w9PfdtcUzi">
    <mxGraphModel>
      <root>
        <mxCell id="0" />
        <mxCell id="1" parent="0" />
      </root>
    </mxGraphModel>
  </diagram>
</mxfile>
